<?xml version="1.0" encoding="utf-8"?>
<!-- Generator: Adobe Illustrator 24.0.1, SVG Export Plug-In . SVG Version: 6.00 Build 0)  -->
<svg version="1.1" id="Layer_1" xmlns="http://www.w3.org/2000/svg" xmlns:xlink="http://www.w3.org/1999/xlink" x="0px" y="0px"
	 viewBox="0 0 24 24" style="enable-background:new 0 0 24 24;" xml:space="preserve">
<path d="M13.4,12l4.6,4.6c0.4,0.4,0.4,1,0,1.4c-0.4,0.4-1,0.4-1.4,0l-5.4-5.4c-0.3-0.3-0.3-0.9,0-1.2L16.6,6c0.4-0.4,1-0.4,1.4,0
	c0.4,0.4,0.4,1,0,1.4L13.4,12z"/>
<path d="M10.9,12l-4.6,4.6c-0.4,0.4-0.4,1,0,1.4c0.4,0.4,1,0.4,1.4,0l5.4-5.4c0.3-0.3,0.3-0.9,0-1.2L7.7,6c-0.4-0.4-1-0.4-1.4,0
	c-0.4,0.4-0.4,1,0,1.4L10.9,12z"/>
</svg>
